<?xml version="1.0" encoding="UTF-8"?>
<!DOCTYPE svg PUBLIC "-//W3C//DTD SVG 1.1//EN" "http://www.w3.org/Graphics/SVG/1.1/DTD/svg11.dtd">
<!-- Creator: CorelDRAW X7 -->
<svg xmlns="http://www.w3.org/2000/svg" xml:space="preserve" width="717.55mm" height="527.05mm" version="1.1" style="shape-rendering:geometricPrecision; text-rendering:geometricPrecision; image-rendering:optimizeQuality; fill-rule:evenodd; clip-rule:evenodd"
viewBox="0 0 71755 52705"
 xmlns:xlink="http://www.w3.org/1999/xlink">
 <defs>
  <style type="text/css">
   <![CDATA[
    .fil0 {fill:#A3C626}
    .fil1 {fill:#253C6A}
    .fil2 {fill:#253C6A;fill-rule:nonzero}
   ]]>
  </style>
 </defs>
 <g id="Layer_x0020_1">
  <metadata id="CorelCorpID_0Corel-Layer"/>
  <path class="fil0" d="M50285 15494c812,621 3287,1653 3862,475 268,-548 -123,-991 -601,-1209 11,373 -41,746 -210,1042 -41,74 391,-1446 -1654,-2758 -1463,-938 -3028,-806 -4069,686 548,126 979,304 1380,743 -1053,-284 -2821,-677 -3656,282 -680,782 -211,2291 696,2653l0 -636c-686,-537 -636,-1089 -557,-1579 116,575 481,1083 1078,1240 1534,403 3015,-3083 5078,-1029 -375,-141 -958,-24 -1347,90zm-4252 2768c-1523,-436 -2465,-2542 -1482,-3852 396,-528 1099,-873 2164,-815 1508,-3100 5373,-2528 6699,659 2417,149 3530,3481 298,4609 0,538 0,1077 0,1615 -2482,-2470 -5470,-2187 -7679,203 0,-806 0,-1612 0,-2419zm6775 411l0 -1500c-1174,-17 -2388,-613 -3270,-1353 -223,130 -445,292 -668,455 -589,429 -1194,870 -1932,833l0 1673c1786,-1098 4046,-1139 5870,-108zm1919 -2734c-115,550 -489,921 -1015,1103l0 1112c206,-76 384,-167 534,-271 677,-467 824,-1224 481,-1944zm-53048 15861c6521,12776 24047,-4757 34508,5597 -11038,-8307 -28910,8959 -34508,-5597z"/>
  <path class="fil1" d="M66721 16493c281,0 556,72 824,217 268,144 478,351 627,620 149,269 225,550 225,841 0,289 -74,567 -222,834 -147,267 -353,474 -620,621 -266,148 -545,222 -834,222 -291,0 -569,-74 -836,-222 -266,-147 -473,-354 -621,-621 -148,-267 -222,-545 -222,-834 0,-291 75,-572 225,-841 151,-269 360,-476 628,-620 269,-145 543,-217 826,-217zm0 277c-236,0 -466,61 -689,182 -223,120 -398,293 -524,518 -126,224 -189,458 -189,701 0,242 63,473 186,695 124,221 297,394 519,518 222,124 455,186 697,186 241,0 473,-62 695,-186 223,-124 396,-297 518,-518 123,-222 185,-453 185,-695 0,-243 -63,-477 -188,-701 -125,-225 -300,-398 -524,-518 -224,-121 -453,-182 -686,-182zm871 2298l-509 -705c196,-98 316,-283 316,-511 0,-346 -272,-580 -648,-580l-675 0 0 1796 367 0 0 -634 270 0 465 634 414 0zm-1149 -1472l308 0c166,0 272,103 272,256 0,155 -101,258 -272,258l-308 0 0 -514z"/>
  <path class="fil2" d="M13645 24598c1055,-1134 2770,-2954 3905,-4089 897,-897 923,-1477 923,-1847 0,-738 -580,-1081 -1029,-1081 -444,0 -1055,316 -1055,1081 0,1003 1002,1056 558,1504 -743,739 -3275,3298 -3882,3931l0 -5356c0,-3508 -2164,-4669 -4617,-4669 -8676,0 -7225,18089 607,19452 3192,555 4036,-1415 3851,-2282 -2110,1574 -6965,1025 -8710,-4406 -2313,-7224 923,-12131 3909,-12131 1583,0 2374,1345 2374,3720l0 10272c0,976 -475,924 -475,1293 0,369 3061,976 3061,-1372l0 -3439c2638,0 2058,5509 3693,7506 607,725 1583,989 2691,409 -2163,-1487 -1161,-8496 -5804,-8496zm54752 2780l0 -2928c0,-4063 -4565,-4881 -5857,-2190 -1082,-2242 -3984,-1873 -4749,-237 -607,-1794 -3034,-1214 -3034,-897 0,369 501,316 501,1293l0 6622c0,2137 2559,1371 2559,1371l0 -5962c0,-1504 712,-2665 1609,-2348 686,237 950,1293 950,3483l0 3456c0,2137 2559,1371 2559,1371l0 -3034 0 -3086 0 -317c0,-1741 1029,-2269 1900,-1741 607,369 976,1213 976,3351l0 3456c0,2137 2586,1371 2586,1371l0 -3034zm-18310 -6762c-2374,-79 -4353,2110 -4432,4854 -79,2770 1767,5039 4142,5118 2374,79 4353,-2110 4432,-4854 79,-2744 -1768,-5039 -4142,-5118zm158 9075c-949,79 -1846,-1715 -2005,-3957 -158,-2269 449,-4142 1398,-4195 950,-53 1847,1688 2006,3931 158,2269 -449,4142 -1399,4221zm-9524 -9075c-2374,-79 -4353,2110 -4432,4854 -79,2770 1767,5039 4142,5118 2374,79 4353,-2110 4432,-4854 79,-2744 -1768,-5039 -4142,-5118zm158 9075c-950,79 -1846,-1715 -2005,-3957 -158,-2269 449,-4142 1398,-4195 950,-53 1847,1688 2005,3931 159,2269 -448,4142 -1398,4221zm-11647 -395c1446,2312 6476,1521 6476,-1346 0,-1873 -1578,-2374 -3104,-3298 -2216,-1319 -2321,-3482 -554,-3482 435,0 884,343 567,1240 -417,1081 475,1899 1372,1899 792,0 1451,-633 1451,-1451 0,-1187 -1160,-2269 -3319,-2269 -2889,0 -4631,2902 -2445,4934 870,791 2550,1609 3258,2348 1618,1636 -2546,3183 -2651,501 -53,-1398 -2212,-923 -1051,924zm-1570 -387l0 -7994c0,0 -2559,-765 -2559,1372l0 4590c0,2924 -3457,3900 -3457,-1134l0 -4828c0,0 -2585,-765 -2585,1372l0 4142c0,4559 4643,5193 6068,2875 607,1790 3034,1210 3034,893 0,-369 -501,-317 -501,-1288z"/>
  <path class="fil2" d="M37228 34820l51 327c-104,22 -198,33 -279,33 -134,0 -239,-21 -313,-64 -74,-43 -126,-98 -156,-168 -30,-69 -45,-216 -45,-439l0 -1261 -275 0 0 -287 275 0 0 -542 371 -223 0 765 371 0 0 287 -371 0 0 1282c0,107 6,175 20,205 12,30 33,54 63,72 30,18 72,27 127,27 41,0 95,-5 161,-14zm367 331l0 -3022 371 0 0 1088c172,-202 390,-303 653,-303 161,0 301,32 420,96 119,64 204,152 256,264 51,113 76,277 76,490l0 1387 -371 0 0 -1385c0,-185 -40,-320 -120,-405 -80,-84 -192,-126 -339,-126 -109,0 -211,28 -308,85 -96,57 -164,134 -206,232 -40,97 -61,231 -61,403l0 1196 -371 0zm3841 -709l384 50c-60,223 -172,397 -335,520 -163,123 -372,185 -625,185 -320,0 -573,-98 -760,-295 -187,-196 -281,-473 -281,-828 0,-367 95,-653 284,-855 189,-204 434,-305 736,-305 292,0 530,99 716,298 184,199 277,479 277,840 0,22 0,55 -2,99l-1631 0c14,239 82,424 204,551 122,127 274,191 457,191 135,0 251,-36 347,-107 96,-72 172,-187 229,-344zm-1216 -595l1220 0c-16,-185 -63,-322 -140,-415 -118,-142 -271,-214 -459,-214 -170,0 -313,57 -429,171 -115,114 -179,267 -192,458zm4672 1304l0 -326c-171,248 -401,372 -693,372 -129,0 -249,-25 -361,-74 -112,-50 -195,-112 -249,-186 -54,-75 -92,-167 -114,-275 -14,-73 -22,-189 -22,-346l0 -1355 371 0 0 1212c0,193 8,324 23,390 23,98 72,174 148,230 75,55 168,83 279,83 111,0 215,-28 312,-85 97,-57 166,-135 207,-232 40,-98 61,-241 61,-427l0 -1171 371 0 0 2190 -333 0zm1722 -331l51 327c-104,22 -198,33 -279,33 -135,0 -239,-21 -313,-64 -74,-43 -126,-98 -157,-168 -30,-69 -45,-216 -45,-439l0 -1261 -274 0 0 -287 274 0 0 -542 372 -223 0 765 371 0 0 287 -371 0 0 1282c0,107 6,175 20,205 12,30 33,54 63,72 29,18 72,27 126,27 41,0 95,-5 162,-14zm1860 -378l384 50c-59,223 -171,397 -334,520 -164,123 -372,185 -626,185 -319,0 -572,-98 -759,-295 -187,-196 -281,-473 -281,-828 0,-367 94,-653 284,-855 189,-204 434,-305 736,-305 292,0 530,99 715,298 185,199 278,479 278,840 0,22 -1,55 -2,99l-1631 0c14,239 81,424 204,551 122,127 274,191 456,191 136,0 252,-36 348,-107 96,-72 172,-187 228,-344zm-1215 -595l1220 0c-17,-185 -64,-322 -140,-415 -118,-142 -271,-214 -459,-214 -170,0 -313,57 -429,171 -115,114 -179,267 -192,458zm2069 1304l0 -2190 333 0 0 311c160,-239 393,-358 696,-358 132,0 253,24 363,71 111,47 194,110 249,187 54,76 93,168 115,273 13,69 20,189 20,361l0 1345 -371 0 0 -1331c0,-151 -14,-264 -43,-339 -29,-74 -80,-134 -153,-179 -73,-45 -160,-67 -258,-67 -158,0 -294,50 -408,150 -115,100 -172,291 -172,571l0 1195 -371 0zm2199 -654l367 -59c21,147 78,259 172,338 95,78 227,117 396,117 171,0 297,-34 380,-104 83,-69 124,-150 124,-244 0,-84 -37,-150 -111,-197 -52,-33 -179,-75 -380,-126 -271,-69 -459,-128 -565,-178 -104,-50 -184,-119 -238,-208 -54,-88 -82,-185 -82,-292 0,-98 23,-188 67,-271 45,-83 106,-152 182,-207 58,-42 137,-78 236,-107 100,-30 206,-45 320,-45 171,0 322,25 451,75 131,49 226,116 288,201 61,85 104,198 127,340l-363 51c-16,-114 -63,-203 -142,-267 -79,-64 -190,-96 -334,-96 -170,0 -292,28 -364,84 -72,57 -109,123 -109,198 0,48 15,91 45,130 30,40 77,73 142,99 37,14 146,45 327,95 262,69 445,127 549,171 104,44 185,110 245,194 59,85 89,191 89,318 0,123 -36,239 -108,348 -73,109 -177,193 -313,253 -136,60 -290,89 -462,89 -284,0 -501,-59 -650,-176 -150,-118 -244,-293 -286,-524zm2258 -1946l0 -422 371 0 0 422 -371 0zm0 2600l0 -2190 371 0 0 2190 -371 0zm929 0l0 -3022 371 0 0 3022 -371 0zm2207 0l0 -1903 -329 0 0 -287 329 0 0 -232c0,-148 12,-256 38,-327 36,-96 98,-174 188,-234 90,-60 215,-89 377,-89 105,0 220,12 347,37l-56 325c-77,-14 -149,-20 -218,-20 -113,0 -192,23 -239,71 -47,48 -70,137 -70,268l0 201 426 0 0 287 -422 0 0 1903 -371 0zm2514 -275c-138,118 -271,200 -398,249 -127,48 -264,72 -410,72 -241,0 -425,-58 -555,-176 -129,-116 -194,-266 -194,-448 0,-107 25,-205 73,-294 49,-88 113,-159 192,-212 80,-53 168,-94 267,-122 73,-19 184,-37 331,-55 299,-35 521,-78 662,-128 2,-50 2,-83 2,-96 0,-150 -35,-257 -105,-319 -95,-83 -236,-125 -423,-125 -175,0 -305,31 -388,92 -84,62 -145,170 -185,326l-363 -51c33,-155 87,-281 163,-377 76,-95 186,-168 329,-220 143,-52 310,-78 499,-78 187,0 339,22 457,66 116,45 203,100 258,166 55,67 93,151 116,253 12,64 18,178 18,342l0 492c0,344 8,561 23,653 15,92 46,180 91,265l-388 0c-37,-78 -61,-170 -72,-275zm-30 -822c-135,54 -337,101 -607,139 -154,22 -262,46 -325,74 -63,27 -112,67 -146,119 -35,53 -52,111 -52,176 0,98 37,180 112,245 75,66 185,99 329,99 143,0 270,-31 382,-94 111,-61 194,-147 246,-254 40,-84 59,-207 59,-369l2 -135zm947 1097l0 -2190 333 0 0 309c68,-107 160,-193 273,-258 114,-66 244,-98 389,-98 162,0 295,34 399,101 103,67 176,161 218,282 175,-255 400,-383 679,-383 218,0 386,60 503,180 118,121 177,305 177,555l0 1502 -372 0 0 -1379c0,-148 -12,-254 -36,-320 -24,-65 -68,-117 -132,-157 -63,-40 -138,-60 -223,-60 -155,0 -283,51 -385,153 -102,103 -152,267 -152,492l0 1271 -372 0 0 -1422c0,-164 -30,-288 -91,-370 -60,-83 -159,-124 -296,-124 -104,0 -201,27 -289,82 -89,55 -153,135 -193,241 -39,106 -59,258 -59,458l0 1135 -371 0zm3515 -2600l0 -422 371 0 0 422 -371 0zm0 2600l0 -2190 371 0 0 2190 -371 0zm929 0l0 -3022 371 0 0 3022 -371 0zm929 842l-42 -344c81,22 152,34 212,34 83,0 149,-15 199,-42 50,-27 90,-66 122,-115 23,-38 61,-130 113,-277 7,-21 18,-51 33,-91l-831 -2197 397 0 457 1264c60,160 112,329 159,506 43,-167 94,-331 153,-493l467 -1277 371 0 -828 2228c-89,240 -159,404 -209,495 -66,122 -142,211 -227,268 -86,57 -188,85 -306,85 -72,0 -152,-15 -240,-44zm2325 -1593l-114 -1601 0 -670 460 0 0 670 -105 1601 -241 0zm-97 751l0 -422 427 0 0 422 -427 0z"/>
  <path class="fil2" d="M25439 40371l328 0 119 -306 588 0 117 306 342 0 -592 -1457 -310 0 -592 1457zm604 -713c46,-122 98,-267 137,-378l4 0c38,111 91,256 133,371l60 162 -392 0 58 -155zm2184 713l302 0 0 -1457 -308 0 0 541c0,141 2,282 4,421l-4 2c-90,-127 -179,-250 -274,-376l-436 -588 -303 0 0 1457 309 0 0 -541c0,-141 -3,-282 -5,-421l5 -2c90,127 179,250 273,376l437 588zm1181 0l320 0 0 -1457 -320 0 0 1457zm712 -80c133,66 308,103 453,103 314,0 530,-172 530,-456 0,-257 -177,-360 -397,-432 -175,-59 -310,-69 -310,-197 0,-97 79,-138 187,-138 113,0 292,45 447,141l0 -316c-126,-68 -301,-105 -445,-105 -306,0 -511,170 -511,442 0,253 181,352 383,418 187,61 324,73 324,208 0,108 -87,155 -204,155 -114,0 -299,-45 -457,-146l0 323zm2003 -188c-252,0 -441,-203 -441,-460 0,-258 189,-462 441,-462 251,0 441,204 441,462 0,257 -190,460 -441,460zm0 291c433,0 761,-327 761,-751 0,-425 -328,-752 -761,-752 -433,0 -761,327 -761,752 0,424 328,751 761,751zm2116 -23l307 -497c103,-167 176,-318 176,-485 0,-310 -244,-495 -540,-495 -310,0 -543,205 -543,489 0,275 223,447 447,447 46,0 90,-6 124,-18l2 4 -344 555 371 0zm-65 -791c-133,0 -221,-95 -221,-209 0,-125 102,-212 221,-212 131,0 220,105 220,216 0,115 -91,205 -220,205zm1397 814c163,0 307,-69 402,-198 91,-125 133,-298 133,-553 0,-256 -42,-429 -133,-554 -95,-129 -239,-198 -402,-198 -161,0 -308,69 -403,198 -91,125 -133,298 -133,554 0,255 42,428 133,553 95,129 242,198 403,198zm0 -286c-65,0 -115,-35 -147,-79 -49,-68 -69,-185 -69,-384 0,-187 18,-316 69,-389 32,-46 82,-79 147,-79 66,0 114,33 146,79 53,74 69,202 69,384 0,206 -20,321 -69,389 -32,44 -80,79 -146,79zm1400 286c164,0 308,-69 403,-198 91,-125 133,-298 133,-553 0,-256 -42,-429 -133,-554 -95,-129 -239,-198 -403,-198 -161,0 -308,69 -403,198 -90,125 -132,298 -132,554 0,255 42,428 132,553 95,129 242,198 403,198zm0 -286c-64,0 -114,-35 -147,-79 -48,-68 -68,-185 -68,-384 0,-187 18,-316 68,-389 33,-46 83,-79 147,-79 67,0 115,33 147,79 53,74 69,202 69,384 0,206 -20,321 -69,389 -32,44 -80,79 -147,79zm1196 263l320 0 0 -1480 -616 224 0 290 296 -107 0 1073zm1058 -666c95,0 173,-79 173,-173 0,-95 -78,-173 -173,-173 -94,0 -173,78 -173,173 0,94 79,173 173,173zm-173 515c0,95 79,174 173,174 95,0 173,-79 173,-174 0,-94 -78,-173 -173,-173 -94,0 -173,79 -173,173zm653 148l1 3 1037 0 0 -280 -455 0 -2 -4 175 -231c151,-201 230,-353 230,-515 0,-274 -224,-450 -512,-450 -163,0 -286,57 -370,117l0 301c109,-85 236,-132 340,-132 129,0 218,69 218,192 0,110 -73,217 -218,411l-444 588zm1905 26c163,0 308,-69 403,-198 91,-125 133,-298 133,-553 0,-256 -42,-429 -133,-554 -95,-129 -240,-198 -403,-198 -161,0 -308,69 -403,198 -90,125 -132,298 -132,554 0,255 42,428 132,553 95,129 242,198 403,198zm0 -286c-64,0 -114,-35 -147,-79 -48,-68 -68,-185 -68,-384 0,-187 18,-316 68,-389 33,-46 83,-79 147,-79 67,0 115,33 147,79 53,74 69,202 69,384 0,206 -20,321 -69,389 -32,44 -80,79 -147,79zm1196 263l320 0 0 -1480 -616 224 0 290 296 -107 0 1073zm837 -66c91,50 244,89 396,89 333,0 574,-182 574,-465 0,-319 -304,-438 -576,-445l23 -290 477 0 20 -280 -795 0 -60 827c51,-8 114,-12 170,-12 165,0 421,34 421,203 0,113 -111,180 -272,180 -114,0 -239,-34 -356,-93l-22 286zm1739 -660c0,424 324,749 793,749 145,0 302,-31 427,-97l0 -326c-121,82 -262,135 -413,135 -300,0 -487,-206 -487,-466 0,-263 193,-460 475,-460 149,0 296,54 402,126l0 -324c-114,-56 -257,-91 -404,-91 -469,0 -793,331 -793,754zm1570 726l922 0 0 -280 -602 0 0 -346 499 0 0 -266 -499 0 0 -285 579 0 0 -280 -899 0 0 1457zm1265 0l321 0 0 -576 143 0 368 576 368 0 -410 -616c193,-62 295,-215 295,-402 0,-349 -295,-439 -627,-439l-458 0 0 1457zm321 -815l0 -362 122 0c238,0 322,54 322,181 0,135 -102,181 -283,181l-161 0zm1499 815l320 0 0 -1177 471 0 0 -280 -1262 0 0 280 471 0 0 1177zm1090 0l321 0 0 -1457 -321 0 0 1457zm723 0l320 0 0 -597 519 0 0 -266 -519 0 0 -314 604 0 0 -280 -924 0 0 1457zm1275 0l321 0 0 -1457 -321 0 0 1457zm722 0l923 0 0 -280 -602 0 0 -346 499 0 0 -266 -499 0 0 -285 580 0 0 -280 -901 0 0 1457zm1266 0l395 0c625,0 906,-284 906,-731 0,-466 -312,-726 -892,-726l-409 0 0 1457zm321 -280l0 -897 86 0c163,0 302,16 405,88 109,77 169,206 169,358 0,289 -169,451 -572,451l-88 0zm1726 -446c0,424 325,749 794,749 145,0 302,-31 427,-97l0 -326c-121,82 -262,135 -413,135 -300,0 -488,-206 -488,-466 0,-263 194,-460 476,-460 149,0 296,54 402,126l0 -324c-115,-56 -258,-91 -404,-91 -469,0 -794,331 -794,754zm2267 458c-252,0 -441,-203 -441,-460 0,-258 189,-462 441,-462 252,0 441,204 441,462 0,257 -189,460 -441,460zm0 291c433,0 761,-327 761,-751 0,-425 -328,-752 -761,-752 -432,0 -761,327 -761,752 0,424 329,751 761,751zm1832 -359l211 -300c73,-102 145,-209 214,-312l4 2c-2,105 -4,242 -4,362l0 584 320 0 0 -1457 -304 0 -433 616 -433 -616 -308 0 0 1457 308 0 0 -584c0,-120 -2,-257 -4,-362l4 -2c69,103 141,210 214,312l211 300zm1147 336l320 0 0 -521 101 0c435,0 681,-135 681,-471 0,-366 -313,-465 -669,-465l-433 0 0 1457zm320 -781l0 -396 109 0c242,0 352,40 352,201 0,137 -80,195 -344,195l-117 0zm898 781l328 0 119 -306 588 0 117 306 342 0 -592 -1457 -310 0 -592 1457zm604 -713c46,-122 98,-267 137,-378l4 0c38,111 91,256 133,371l60 162 -392 0 58 -155zm2184 713l302 0 0 -1457 -308 0 0 541c0,141 2,282 4,421l-4 2c-90,-127 -179,-250 -274,-376l-437 -588 -302 0 0 1457 308 0 0 -541c0,-141 -2,-282 -4,-421l4 -2c91,127 179,250 274,376l437 588zm1107 0l320 0 0 -660 557 -797 -360 0 -175 261c-61,91 -119,182 -175,271l-4 0c-57,-89 -119,-186 -175,-269l-178 -263 -372 0 562 799 0 658z"/>
 </g>
</svg>
