<svg width="3581" height="1583" viewBox="0 0 3581 1583" fill="none" xmlns="http://www.w3.org/2000/svg">
<rect width="3581" height="1583" fill="white"/>
<path fill-rule="evenodd" clip-rule="evenodd" d="M2529.98 248.009C2570.42 278.934 2693.67 330.327 2722.3 271.664C2735.65 244.374 2716.18 222.313 2692.37 211.457C2692.92 230.032 2690.33 248.607 2681.92 263.347C2679.87 267.032 2701.39 191.338 2599.55 126.002C2526.69 79.2908 2448.76 85.8642 2396.92 160.164C2424.21 166.439 2445.67 175.303 2465.64 197.165C2413.2 183.022 2325.16 163.451 2283.58 211.208C2249.71 250.151 2273.07 325.297 2318.24 343.324V311.652C2284.07 284.91 2286.56 257.421 2290.5 233.02C2296.27 261.654 2314.45 286.952 2344.18 294.77C2420.57 314.839 2494.32 141.241 2597.06 243.527C2578.38 236.506 2549.35 242.332 2529.98 248.009ZM2318.24 385.852C2242.39 364.14 2195.48 259.264 2244.43 194.027C2264.15 167.733 2299.16 150.553 2352.2 153.441C2427.29 -0.935138 2619.77 27.5498 2685.8 186.259C2806.16 193.679 2861.59 359.608 2700.64 415.781C2700.64 442.573 2700.64 469.415 2700.64 496.207C2577.04 373.203 2428.24 387.297 2318.24 506.316C2318.24 466.178 2318.24 426.04 2318.24 385.852ZM2655.62 406.32V331.621C2597.16 330.775 2536.7 301.095 2492.78 264.244C2481.68 270.717 2470.62 278.785 2459.51 286.902C2430.18 308.266 2400.05 330.227 2363.3 328.384V411.698C2452.24 357.019 2564.79 354.977 2655.62 406.32ZM2751.19 270.17C2745.46 297.559 2726.83 316.034 2700.64 325.098V380.474C2710.9 376.689 2719.76 372.158 2727.23 366.979C2760.95 343.723 2768.27 306.025 2751.19 270.17ZM109.458 1060.03C434.197 1696.26 1306.97 823.136 1827.92 1338.75C1278.24 925.074 388.232 1784.9 109.458 1060.03Z" fill="#A3C626"/>
<path fill-rule="evenodd" clip-rule="evenodd" d="M3348.47 297.758C3362.47 297.758 3376.16 301.344 3389.51 308.565C3402.85 315.736 3413.31 326.044 3420.73 339.44C3428.15 352.836 3431.94 366.829 3431.94 381.321C3431.94 395.713 3428.25 409.557 3420.88 422.853C3413.56 436.149 3403.3 446.458 3390.01 453.778C3376.76 461.148 3362.87 464.833 3348.47 464.833C3333.98 464.833 3320.14 461.148 3306.84 453.778C3293.6 446.458 3283.29 436.149 3275.92 422.853C3268.55 409.557 3264.86 395.713 3264.86 381.321C3264.86 366.829 3268.6 352.836 3276.07 339.44C3283.59 326.044 3293.99 315.736 3307.34 308.565C3320.74 301.344 3334.38 297.758 3348.47 297.758ZM3348.47 311.553C3336.72 311.553 3325.27 314.59 3314.16 320.616C3303.06 326.592 3294.34 335.207 3288.07 346.412C3281.79 357.567 3278.66 369.22 3278.66 381.321C3278.66 393.372 3281.79 404.876 3287.92 415.931C3294.09 426.936 3302.71 435.552 3313.76 441.727C3324.82 447.902 3336.42 450.989 3348.47 450.989C3360.48 450.989 3372.03 447.902 3383.08 441.727C3394.19 435.552 3402.8 426.936 3408.88 415.931C3415 404.876 3418.09 393.372 3418.09 381.321C3418.09 369.22 3414.95 357.567 3408.73 346.412C3402.51 335.207 3393.79 326.592 3382.64 320.616C3371.48 314.59 3360.08 311.553 3348.47 311.553ZM3391.85 425.99L3366.5 390.882C3376.26 386.002 3382.24 376.789 3382.24 365.435C3382.24 348.204 3368.69 336.552 3349.97 336.552H3316.35V425.99H3334.63V394.418H3348.08L3371.23 425.99H3391.85ZM3334.63 352.686H3349.97C3358.23 352.686 3363.51 357.816 3363.51 365.435C3363.51 373.154 3358.48 378.283 3349.97 378.283H3334.63V352.686Z" fill="black"/>
<path d="M705.351 701.378C757.889 644.906 843.294 554.272 899.816 497.75C944.485 453.081 945.78 424.197 945.78 405.772C945.78 369.02 916.897 351.939 894.537 351.939C872.426 351.939 841.999 367.676 841.999 405.772C841.999 455.72 891.898 458.359 869.787 480.669C832.787 517.471 706.696 644.906 676.468 676.428V409.706C676.468 235.012 568.703 177.195 446.547 177.195C14.4923 177.195 86.7504 1078.01 476.775 1145.88C635.733 1173.52 677.763 1075.42 668.55 1032.24C563.475 1110.62 321.701 1083.28 234.802 812.827C119.618 453.081 280.767 208.718 429.466 208.718C508.297 208.718 547.688 275.697 547.688 393.97V905.503C547.688 954.107 524.034 951.517 524.034 969.893C524.034 988.269 676.468 1018.5 676.468 901.569V730.311C807.837 730.311 778.954 1004.65 860.375 1104.1C890.603 1140.2 939.207 1153.35 994.384 1124.47C886.669 1050.42 936.567 701.378 705.351 701.378ZM3431.94 839.818V694.007C3431.94 491.675 3204.61 450.939 3140.27 584.948C3086.38 473.299 2941.87 491.675 2903.77 573.146C2873.54 483.807 2752.68 512.69 2752.68 528.476C2752.68 546.852 2777.63 544.213 2777.63 592.866V922.634C2777.63 1029.05 2905.07 990.908 2905.07 990.908V694.007C2905.07 619.11 2940.52 561.294 2985.19 577.08C3019.35 588.882 3032.5 641.47 3032.5 750.529V922.634C3032.5 1029.05 3159.94 990.908 3159.94 990.908V839.818V686.139V670.353C3159.94 583.653 3211.18 557.359 3254.55 583.653C3284.78 602.029 3303.16 644.059 3303.16 750.529V922.634C3303.16 1029.05 3431.94 990.908 3431.94 990.908V839.818ZM2520.12 503.079C2401.9 499.145 2303.35 608.154 2299.41 744.802C2295.48 882.745 2387.41 995.739 2505.68 999.673C2623.9 1003.61 2722.45 894.597 2726.39 757.949C2730.32 621.301 2638.34 507.013 2520.12 503.079ZM2527.99 955.003C2480.73 958.937 2436.06 869.598 2428.14 757.949C2420.27 644.956 2450.5 551.682 2497.76 549.043C2545.07 546.404 2589.74 633.103 2597.66 744.802C2605.53 857.796 2575.3 951.069 2527.99 955.003ZM2053.7 503.079C1935.48 499.145 1836.93 608.154 1833 744.802C1829.06 882.745 1920.99 995.739 2039.26 999.673C2157.49 1003.61 2256.04 894.597 2259.97 757.949C2263.91 621.301 2171.93 507.013 2053.7 503.079ZM2061.57 955.003C2014.26 958.937 1969.64 869.598 1961.73 757.949C1953.86 644.956 1984.09 551.682 2031.34 549.043C2078.65 546.404 2123.32 633.103 2131.19 744.802C2139.11 857.796 2108.88 951.069 2061.57 955.003ZM1481.57 935.333C1553.57 1050.47 1804.06 1011.08 1804.06 868.303C1804.06 775.03 1725.48 750.081 1649.49 704.067C1539.13 638.382 1533.9 530.667 1621.9 530.667C1643.56 530.667 1665.92 547.748 1650.13 592.418C1629.37 646.25 1673.79 686.986 1718.46 686.986C1757.9 686.986 1790.72 655.463 1790.72 614.728C1790.72 555.617 1732.95 501.734 1625.43 501.734C1481.57 501.734 1394.82 646.25 1503.68 747.442C1547 786.832 1630.66 827.568 1665.92 864.369C1746.5 945.84 1539.13 1022.88 1533.9 889.318C1531.26 819.7 1423.75 843.354 1481.57 935.333ZM1403.38 916.06V517.969C1403.38 517.969 1275.95 479.873 1275.95 586.293V814.869C1275.95 960.481 1103.79 1009.08 1103.79 758.397V517.969C1103.79 517.969 975.062 479.873 975.062 586.293V792.559C975.062 1019.59 1206.28 1051.16 1277.24 935.731C1307.47 1024.87 1428.33 995.988 1428.33 980.201C1428.33 961.826 1403.38 964.415 1403.38 916.06Z" fill="#253C6A"/>
<path d="M1879.76 1210.42L1882.3 1226.71C1877.12 1227.8 1872.44 1228.35 1868.4 1228.35C1861.73 1228.35 1856.5 1227.3 1852.82 1225.16C1849.13 1223.02 1846.54 1220.28 1845.05 1216.8C1843.55 1213.36 1842.81 1206.04 1842.81 1194.93V1132.14H1829.11V1117.85H1842.81V1090.85L1861.28 1079.75V1117.85H1879.76V1132.14H1861.28V1195.98C1861.28 1201.31 1861.58 1204.69 1862.28 1206.19C1862.87 1207.68 1863.92 1208.88 1865.41 1209.77C1866.91 1210.67 1869 1211.12 1871.74 1211.12C1873.78 1211.12 1876.47 1210.87 1879.76 1210.42ZM1898.03 1226.9V1076.41H1916.51V1130.59C1925.07 1120.53 1935.93 1115.5 1949.03 1115.5C1957.04 1115.5 1964.02 1117.1 1969.94 1120.29C1975.87 1123.47 1980.1 1127.85 1982.69 1133.43C1985.23 1139.06 1986.48 1147.23 1986.48 1157.83V1226.9H1968V1157.93C1968 1148.72 1966.01 1142 1962.02 1137.76C1958.04 1133.58 1952.46 1131.49 1945.14 1131.49C1939.71 1131.49 1934.64 1132.88 1929.8 1135.72C1925.02 1138.56 1921.64 1142.4 1919.55 1147.28C1917.55 1152.11 1916.51 1158.78 1916.51 1167.35V1226.9H1898.03ZM2089.31 1191.6L2108.43 1194.09C2105.44 1205.19 2099.87 1213.86 2091.75 1219.98C2083.63 1226.11 2073.23 1229.2 2060.63 1229.2C2044.69 1229.2 2032.09 1224.32 2022.78 1214.5C2013.47 1204.74 2008.79 1190.95 2008.79 1173.27C2008.79 1155 2013.52 1140.75 2022.93 1130.69C2032.34 1120.53 2044.54 1115.5 2059.58 1115.5C2074.12 1115.5 2085.97 1120.43 2095.24 1130.34C2104.4 1140.25 2109.03 1154.2 2109.03 1172.18C2109.03 1173.27 2109.03 1174.91 2108.93 1177.11H2027.71C2028.41 1189.01 2031.79 1198.22 2037.87 1204.55C2043.94 1210.87 2051.51 1214.06 2060.63 1214.06C2067.35 1214.06 2073.13 1212.26 2077.91 1208.73C2082.69 1205.14 2086.47 1199.42 2089.31 1191.6ZM2028.75 1161.97H2089.51C2088.71 1152.75 2086.37 1145.93 2082.54 1141.3C2076.66 1134.23 2069.04 1130.64 2059.68 1130.64C2051.21 1130.64 2044.09 1133.48 2038.32 1139.16C2032.59 1144.84 2029.4 1152.46 2028.75 1161.97ZM2261.41 1226.9V1210.67C2252.9 1223.02 2241.45 1229.2 2226.9 1229.2C2220.48 1229.2 2214.5 1227.95 2208.93 1225.51C2203.35 1223.02 2199.22 1219.93 2196.53 1216.25C2193.84 1212.51 2191.95 1207.93 2190.85 1202.55C2190.15 1198.92 2189.75 1193.14 2189.75 1185.32V1117.85H2208.23V1178.2C2208.23 1187.81 2208.63 1194.34 2209.38 1197.62C2210.52 1202.5 2212.96 1206.29 2216.75 1209.08C2220.48 1211.82 2225.11 1213.21 2230.64 1213.21C2236.17 1213.21 2241.35 1211.82 2246.18 1208.98C2251.01 1206.14 2254.44 1202.25 2256.48 1197.42C2258.48 1192.54 2259.52 1185.42 2259.52 1176.16V1117.85H2278V1226.9H2261.41ZM2347.17 1210.42L2349.71 1226.71C2344.53 1227.8 2339.85 1228.35 2335.81 1228.35C2329.09 1228.35 2323.91 1227.3 2320.23 1225.16C2316.54 1223.02 2313.95 1220.28 2312.41 1216.8C2310.91 1213.36 2310.17 1206.04 2310.17 1194.93V1132.14H2296.52V1117.85H2310.17V1090.85L2328.69 1079.75V1117.85H2347.17V1132.14H2328.69V1195.98C2328.69 1201.31 2328.99 1204.69 2329.69 1206.19C2330.29 1207.68 2331.33 1208.88 2332.83 1209.77C2334.27 1210.67 2336.41 1211.12 2339.1 1211.12C2341.14 1211.12 2343.83 1210.87 2347.17 1210.42ZM2439.79 1191.6L2458.92 1194.09C2455.98 1205.19 2450.4 1213.86 2442.28 1219.98C2434.12 1226.11 2423.76 1229.2 2411.11 1229.2C2395.22 1229.2 2382.63 1224.32 2373.31 1214.5C2364 1204.74 2359.32 1190.95 2359.32 1173.27C2359.32 1155 2364 1140.75 2373.46 1130.69C2382.87 1120.53 2395.07 1115.5 2410.11 1115.5C2424.66 1115.5 2436.51 1120.43 2445.72 1130.34C2454.93 1140.25 2459.56 1154.2 2459.56 1172.18C2459.56 1173.27 2459.51 1174.91 2459.46 1177.11H2378.24C2378.94 1189.01 2382.28 1198.22 2388.4 1204.55C2394.48 1210.87 2402.05 1214.06 2411.11 1214.06C2417.88 1214.06 2423.66 1212.26 2428.44 1208.73C2433.22 1205.14 2437.01 1199.42 2439.79 1191.6ZM2379.29 1161.97H2440.04C2439.2 1152.75 2436.86 1145.93 2433.07 1141.3C2427.2 1134.23 2419.58 1130.64 2410.21 1130.64C2401.75 1130.64 2394.63 1133.48 2388.85 1139.16C2383.12 1144.84 2379.94 1152.46 2379.29 1161.97ZM2482.32 1226.9V1117.85H2498.91V1133.33C2506.87 1121.43 2518.48 1115.5 2533.57 1115.5C2540.14 1115.5 2546.16 1116.7 2551.64 1119.04C2557.17 1121.38 2561.3 1124.52 2564.04 1128.35C2566.73 1132.14 2568.67 1136.72 2569.77 1141.95C2570.42 1145.38 2570.77 1151.36 2570.77 1159.93V1226.9H2552.29V1160.62C2552.29 1153.1 2551.59 1147.48 2550.15 1143.74C2548.7 1140.06 2546.16 1137.07 2542.53 1134.83C2538.89 1132.59 2534.56 1131.49 2529.68 1131.49C2521.81 1131.49 2515.04 1133.98 2509.36 1138.96C2503.64 1143.94 2500.8 1153.45 2500.8 1167.4V1226.9H2482.32ZM2591.83 1194.34L2610.11 1191.4C2611.15 1198.72 2613.99 1204.3 2618.67 1208.23C2623.4 1212.11 2629.98 1214.06 2638.39 1214.06C2646.91 1214.06 2653.18 1212.36 2657.32 1208.88C2661.45 1205.44 2663.49 1201.41 2663.49 1196.73C2663.49 1192.54 2661.65 1189.26 2657.96 1186.92C2655.37 1185.27 2649.05 1183.18 2639.04 1180.64C2625.54 1177.21 2616.18 1174.27 2610.9 1171.78C2605.72 1169.29 2601.74 1165.85 2599.05 1161.42C2596.36 1157.04 2594.97 1152.21 2594.97 1146.88C2594.97 1142 2596.11 1137.52 2598.3 1133.38C2600.54 1129.25 2603.58 1125.81 2607.37 1123.07C2610.26 1120.98 2614.19 1119.19 2619.12 1117.75C2624.1 1116.25 2629.38 1115.5 2635.06 1115.5C2643.57 1115.5 2651.09 1116.75 2657.51 1119.24C2664.04 1121.68 2668.77 1125.02 2671.86 1129.25C2674.89 1133.48 2677.04 1139.11 2678.18 1146.18L2660.1 1148.72C2659.31 1143.04 2656.97 1138.61 2653.03 1135.42C2649.1 1132.24 2643.57 1130.64 2636.4 1130.64C2627.93 1130.64 2621.86 1132.04 2618.27 1134.83C2614.69 1137.67 2612.85 1140.95 2612.85 1144.69C2612.85 1147.08 2613.59 1149.22 2615.09 1151.16C2616.58 1153.15 2618.92 1154.8 2622.16 1156.09C2624 1156.79 2629.43 1158.33 2638.44 1160.82C2651.49 1164.26 2660.6 1167.15 2665.78 1169.34C2670.96 1171.53 2674.99 1174.82 2677.98 1179C2680.92 1183.23 2682.41 1188.51 2682.41 1194.83C2682.41 1200.96 2680.62 1206.74 2677.04 1212.16C2673.4 1217.59 2668.22 1221.78 2661.45 1224.76C2654.68 1227.75 2647.01 1229.2 2638.44 1229.2C2624.3 1229.2 2613.49 1226.26 2606.07 1220.43C2598.6 1214.55 2593.92 1205.84 2591.83 1194.34ZM2704.28 1097.43V1076.41H2722.75V1097.43H2704.28ZM2704.28 1226.9V1117.85H2722.75V1226.9H2704.28ZM2750.54 1226.9V1076.41H2769.01V1226.9H2750.54ZM2860.44 1226.9V1132.14H2844.06V1117.85H2860.44V1106.29C2860.44 1098.92 2861.04 1093.54 2862.34 1090.01C2864.13 1085.23 2867.22 1081.34 2871.7 1078.35C2876.18 1075.37 2882.41 1073.92 2890.47 1073.92C2895.7 1073.92 2901.43 1074.52 2907.75 1075.77L2904.97 1091.95C2901.13 1091.25 2897.55 1090.95 2894.11 1090.95C2888.48 1090.95 2884.55 1092.1 2882.21 1094.49C2879.87 1096.88 2878.72 1101.31 2878.72 1107.84V1117.85H2899.94V1132.14H2878.92V1226.9H2860.44ZM2985.64 1213.21C2978.77 1219.09 2972.14 1223.17 2965.82 1225.61C2959.49 1228 2952.67 1229.2 2945.4 1229.2C2933.4 1229.2 2924.24 1226.31 2917.76 1220.43C2911.34 1214.65 2908.1 1207.18 2908.1 1198.12C2908.1 1192.79 2909.35 1187.91 2911.74 1183.48C2914.18 1179.1 2917.36 1175.56 2921.3 1172.92C2925.28 1170.28 2929.67 1168.24 2934.6 1166.85C2938.23 1165.9 2943.76 1165 2951.08 1164.11C2965.97 1162.37 2977.02 1160.22 2984.05 1157.73C2984.15 1155.24 2984.15 1153.6 2984.15 1152.95C2984.15 1145.48 2982.4 1140.16 2978.92 1137.07C2974.19 1132.93 2967.16 1130.84 2957.85 1130.84C2949.14 1130.84 2942.66 1132.39 2938.53 1135.42C2934.35 1138.51 2931.31 1143.89 2929.32 1151.66L2911.24 1149.12C2912.88 1141.4 2915.57 1135.13 2919.36 1130.34C2923.14 1125.61 2928.62 1121.98 2935.74 1119.39C2942.86 1116.8 2951.18 1115.5 2960.59 1115.5C2969.9 1115.5 2977.47 1116.6 2983.35 1118.79C2989.13 1121.03 2993.46 1123.77 2996.2 1127.06C2998.94 1130.39 3000.83 1134.58 3001.97 1139.66C3002.57 1142.84 3002.87 1148.52 3002.87 1156.69V1181.19C3002.87 1198.32 3003.27 1209.13 3004.01 1213.71C3004.76 1218.29 3006.31 1222.67 3008.55 1226.9H2989.22C2987.38 1223.02 2986.19 1218.44 2985.64 1213.21ZM2984.15 1172.28C2977.42 1174.96 2967.36 1177.31 2953.92 1179.2C2946.25 1180.29 2940.87 1181.49 2937.73 1182.88C2934.6 1184.23 2932.16 1186.22 2930.46 1188.81C2928.72 1191.45 2927.87 1194.34 2927.87 1197.57C2927.87 1202.45 2929.72 1206.54 2933.45 1209.77C2937.18 1213.06 2942.66 1214.7 2949.83 1214.7C2956.96 1214.7 2963.28 1213.16 2968.86 1210.02C2974.38 1206.99 2978.52 1202.7 2981.11 1197.37C2983.1 1193.19 2984.05 1187.07 2984.05 1179L2984.15 1172.28ZM3031.3 1226.9V1117.85H3047.89V1133.23C3051.27 1127.9 3055.86 1123.62 3061.48 1120.39C3067.16 1117.1 3073.63 1115.5 3080.85 1115.5C3088.92 1115.5 3095.55 1117.2 3100.72 1120.53C3105.85 1123.87 3109.49 1128.55 3111.58 1134.58C3120.3 1121.88 3131.5 1115.5 3145.39 1115.5C3156.25 1115.5 3164.62 1118.49 3170.44 1124.47C3176.32 1130.49 3179.26 1139.66 3179.26 1152.11V1226.9H3160.73V1158.23C3160.73 1150.86 3160.13 1145.58 3158.94 1142.3C3157.74 1139.06 3155.55 1136.47 3152.37 1134.48C3149.23 1132.49 3145.49 1131.49 3141.26 1131.49C3133.54 1131.49 3127.17 1134.03 3122.09 1139.11C3117.01 1144.24 3114.52 1152.41 3114.52 1163.61V1226.9H3095.99V1156.09C3095.99 1147.92 3094.5 1141.75 3091.46 1137.67C3088.47 1133.53 3083.54 1131.49 3076.72 1131.49C3071.54 1131.49 3066.71 1132.83 3062.33 1135.57C3057.9 1138.31 3054.71 1142.3 3052.72 1147.58C3050.78 1152.85 3049.78 1160.42 3049.78 1170.38V1226.9H3031.3ZM3206.35 1097.43V1076.41H3224.82V1097.43H3206.35ZM3206.35 1226.9V1117.85H3224.82V1226.9H3206.35ZM3252.61 1226.9V1076.41H3271.09V1226.9H3252.61ZM3298.87 1268.84L3296.78 1251.7C3300.82 1252.8 3304.35 1253.4 3307.34 1253.4C3311.47 1253.4 3314.76 1252.65 3317.25 1251.31C3319.74 1249.96 3321.73 1248.02 3323.32 1245.58C3324.47 1243.69 3326.36 1239.11 3328.95 1231.79C3329.3 1230.74 3329.85 1229.25 3330.6 1227.25L3289.21 1117.85H3308.98L3331.74 1180.79C3334.73 1188.76 3337.32 1197.17 3339.66 1205.99C3341.8 1197.67 3344.34 1189.51 3347.28 1181.44L3370.53 1117.85H3389.01L3347.78 1228.8C3343.34 1240.75 3339.86 1248.92 3337.37 1253.45C3334.08 1259.52 3330.3 1263.96 3326.06 1266.79C3321.78 1269.63 3316.7 1271.03 3310.83 1271.03C3307.24 1271.03 3303.26 1270.28 3298.87 1268.84ZM3414.66 1189.51L3408.98 1109.78V1076.41H3431.89V1109.78L3426.66 1189.51H3414.66ZM3409.83 1226.9V1205.89H3431.09V1226.9H3409.83Z" fill="#253C6A"/>
<path d="M1292.68 1486.85H1309.01L1314.94 1471.62H1344.22L1350.05 1486.85H1367.08L1337.6 1414.3H1322.16L1292.68 1486.85ZM1322.76 1451.35C1325.05 1445.27 1327.64 1438.05 1329.58 1432.52H1329.78C1331.67 1438.05 1334.31 1445.27 1336.4 1451L1339.39 1459.07H1319.87L1322.76 1451.35ZM1431.52 1486.85H1446.56V1414.3H1431.22V1441.24C1431.22 1448.26 1431.32 1455.28 1431.42 1462.2L1431.22 1462.3C1426.74 1455.98 1422.3 1449.85 1417.57 1443.58L1395.86 1414.3H1380.77V1486.85H1396.16V1459.91C1396.16 1452.89 1396.01 1445.87 1395.91 1438.95L1396.16 1438.85C1400.64 1445.17 1405.07 1451.3 1409.76 1457.57L1431.52 1486.85ZM1490.33 1486.85H1506.27V1414.3H1490.33V1486.85ZM1525.79 1482.87C1532.41 1486.16 1541.12 1488 1548.35 1488C1563.98 1488 1574.74 1479.43 1574.74 1465.29C1574.74 1452.49 1565.92 1447.36 1554.97 1443.78C1546.25 1440.84 1539.53 1440.34 1539.53 1433.97C1539.53 1429.14 1543.47 1427.1 1548.84 1427.1C1554.47 1427.1 1563.38 1429.34 1571.1 1434.12V1418.38C1564.83 1414.99 1556.11 1413.15 1548.94 1413.15C1533.7 1413.15 1523.5 1421.62 1523.5 1435.16C1523.5 1447.76 1532.51 1452.69 1542.57 1455.98C1551.88 1459.02 1558.7 1459.61 1558.7 1466.34C1558.7 1471.72 1554.37 1474.06 1548.54 1474.06C1542.87 1474.06 1533.65 1471.82 1525.79 1466.79V1482.87ZM1625.53 1473.51C1612.98 1473.51 1603.57 1463.4 1603.57 1450.6C1603.57 1437.75 1612.98 1427.59 1625.53 1427.59C1638.03 1427.59 1647.49 1437.75 1647.49 1450.6C1647.49 1463.4 1638.03 1473.51 1625.53 1473.51ZM1625.53 1488C1647.1 1488 1663.43 1471.72 1663.43 1450.6C1663.43 1429.44 1647.1 1413.15 1625.53 1413.15C1603.97 1413.15 1587.64 1429.44 1587.64 1450.6C1587.64 1471.72 1603.97 1488 1625.53 1488ZM1730.91 1486.85L1746.2 1462.1C1751.33 1453.79 1754.96 1446.27 1754.96 1437.95C1754.96 1422.51 1742.81 1413.3 1728.07 1413.3C1712.63 1413.3 1701.03 1423.51 1701.03 1437.65C1701.03 1451.35 1712.13 1459.91 1723.29 1459.91C1725.58 1459.91 1727.77 1459.61 1729.46 1459.02L1729.56 1459.22L1712.43 1486.85H1730.91ZM1727.67 1447.46C1721.05 1447.46 1716.67 1442.73 1716.67 1437.06C1716.67 1430.83 1721.74 1426.5 1727.67 1426.5C1734.19 1426.5 1738.63 1431.73 1738.63 1437.25C1738.63 1442.98 1734.09 1447.46 1727.67 1447.46ZM1797.24 1488C1805.36 1488 1812.53 1484.56 1817.26 1478.14C1821.79 1471.91 1823.88 1463.3 1823.88 1450.6C1823.88 1437.85 1821.79 1429.24 1817.26 1423.01C1812.53 1416.59 1805.36 1413.15 1797.24 1413.15C1789.22 1413.15 1781.9 1416.59 1777.17 1423.01C1772.64 1429.24 1770.55 1437.85 1770.55 1450.6C1770.55 1463.3 1772.64 1471.91 1777.17 1478.14C1781.9 1484.56 1789.22 1488 1797.24 1488ZM1797.24 1473.76C1794 1473.76 1791.51 1472.01 1789.92 1469.82C1787.48 1466.44 1786.48 1460.61 1786.48 1450.7C1786.48 1441.39 1787.38 1434.96 1789.92 1431.33C1791.51 1429.04 1794 1427.39 1797.24 1427.39C1800.53 1427.39 1802.92 1429.04 1804.51 1431.33C1807.15 1435.01 1807.95 1441.39 1807.95 1450.45C1807.95 1460.71 1806.95 1466.44 1804.51 1469.82C1802.92 1472.01 1800.53 1473.76 1797.24 1473.76ZM1866.96 1488C1875.13 1488 1882.3 1484.56 1887.03 1478.14C1891.56 1471.91 1893.65 1463.3 1893.65 1450.6C1893.65 1437.85 1891.56 1429.24 1887.03 1423.01C1882.3 1416.59 1875.13 1413.15 1866.96 1413.15C1858.94 1413.15 1851.62 1416.59 1846.89 1423.01C1842.41 1429.24 1840.32 1437.85 1840.32 1450.6C1840.32 1463.3 1842.41 1471.91 1846.89 1478.14C1851.62 1484.56 1858.94 1488 1866.96 1488ZM1866.96 1473.76C1863.77 1473.76 1861.28 1472.01 1859.64 1469.82C1857.25 1466.44 1856.25 1460.61 1856.25 1450.7C1856.25 1441.39 1857.15 1434.96 1859.64 1431.33C1861.28 1429.04 1863.77 1427.39 1866.96 1427.39C1870.29 1427.39 1872.69 1429.04 1874.28 1431.33C1876.92 1435.01 1877.71 1441.39 1877.71 1450.45C1877.71 1460.71 1876.72 1466.44 1874.28 1469.82C1872.69 1472.01 1870.29 1473.76 1866.96 1473.76ZM1926.52 1486.85H1942.45V1413.15L1911.78 1424.31V1438.75L1926.52 1433.42V1486.85ZM1979.2 1453.69C1983.94 1453.69 1987.82 1449.75 1987.82 1445.07C1987.82 1440.34 1983.94 1436.46 1979.2 1436.46C1974.52 1436.46 1970.59 1440.34 1970.59 1445.07C1970.59 1449.75 1974.52 1453.69 1979.2 1453.69ZM1970.59 1479.33C1970.59 1484.07 1974.52 1488 1979.2 1488C1983.94 1488 1987.82 1484.07 1987.82 1479.33C1987.82 1474.65 1983.94 1470.72 1979.2 1470.72C1974.52 1470.72 1970.59 1474.65 1970.59 1479.33ZM2003.11 1486.7L2003.16 1486.85H2054.8V1472.91H2032.14L2032.04 1472.71L2040.76 1461.21C2048.28 1451.2 2052.21 1443.63 2052.21 1435.56C2052.21 1421.92 2041.05 1413.15 2026.71 1413.15C2018.6 1413.15 2012.47 1415.99 2008.29 1418.98V1433.97C2013.72 1429.74 2020.04 1427.39 2025.22 1427.39C2031.64 1427.39 2036.08 1430.83 2036.08 1436.96C2036.08 1442.43 2032.44 1447.76 2025.22 1457.42L2003.11 1486.7ZM2097.98 1488C2106.09 1488 2113.31 1484.56 2118.04 1478.14C2122.58 1471.91 2124.67 1463.3 2124.67 1450.6C2124.67 1437.85 2122.58 1429.24 2118.04 1423.01C2113.31 1416.59 2106.09 1413.15 2097.98 1413.15C2089.96 1413.15 2082.64 1416.59 2077.91 1423.01C2073.42 1429.24 2071.33 1437.85 2071.33 1450.6C2071.33 1463.3 2073.42 1471.91 2077.91 1478.14C2082.64 1484.56 2089.96 1488 2097.98 1488ZM2097.98 1473.76C2094.79 1473.76 2092.3 1472.01 2090.65 1469.82C2088.26 1466.44 2087.27 1460.61 2087.27 1450.7C2087.27 1441.39 2088.16 1434.96 2090.65 1431.33C2092.3 1429.04 2094.79 1427.39 2097.98 1427.39C2101.31 1427.39 2103.7 1429.04 2105.3 1431.33C2107.93 1435.01 2108.73 1441.39 2108.73 1450.45C2108.73 1460.71 2107.74 1466.44 2105.3 1469.82C2103.7 1472.01 2101.31 1473.76 2097.98 1473.76ZM2157.53 1486.85H2173.47V1413.15L2142.79 1424.31V1438.75L2157.53 1433.42V1486.85ZM2199.22 1483.57C2203.75 1486.06 2211.37 1488 2218.94 1488C2235.52 1488 2247.52 1478.94 2247.52 1464.84C2247.52 1448.96 2232.38 1443.03 2218.84 1442.68L2219.98 1428.24H2243.74L2244.73 1414.3H2205.14L2202.15 1455.48C2204.69 1455.08 2207.83 1454.88 2210.62 1454.88C2218.84 1454.88 2231.59 1456.58 2231.59 1464.99C2231.59 1470.62 2226.06 1473.96 2218.04 1473.96C2212.36 1473.96 2206.14 1472.26 2200.31 1469.33L2199.22 1483.57ZM2285.82 1450.7C2285.82 1471.82 2301.95 1488 2325.31 1488C2332.53 1488 2340.35 1486.46 2346.57 1483.17V1466.93C2340.55 1471.02 2333.52 1473.66 2326 1473.66C2311.06 1473.66 2301.75 1463.4 2301.75 1450.45C2301.75 1437.35 2311.36 1427.54 2325.41 1427.54C2332.83 1427.54 2340.15 1430.23 2345.43 1433.82V1417.68C2339.75 1414.9 2332.63 1413.15 2325.31 1413.15C2301.95 1413.15 2285.82 1429.64 2285.82 1450.7ZM2364 1486.85H2409.91V1472.91H2379.94V1455.68H2404.79V1442.43H2379.94V1428.24H2408.77V1414.3H2364V1486.85ZM2427 1486.85H2442.98V1458.17H2450.1L2468.43 1486.85H2486.75L2466.34 1456.18C2475.95 1453.09 2481.03 1445.47 2481.03 1436.16C2481.03 1418.78 2466.34 1414.3 2449.8 1414.3H2427V1486.85ZM2442.98 1446.27V1428.24H2449.06C2460.91 1428.24 2465.09 1430.93 2465.09 1437.25C2465.09 1443.98 2460.01 1446.27 2451 1446.27H2442.98ZM2517.63 1486.85H2533.57V1428.24H2557.02V1414.3H2494.17V1428.24H2517.63V1486.85ZM2571.91 1486.85H2587.9V1414.3H2571.91V1486.85ZM2607.91 1486.85H2623.85V1457.12H2649.7V1443.88H2623.85V1428.24H2653.93V1414.3H2607.91V1486.85ZM2671.41 1486.85H2687.39V1414.3H2671.41V1486.85ZM2707.36 1486.85H2753.33V1472.91H2723.35V1455.68H2748.2V1442.43H2723.35V1428.24H2752.23V1414.3H2707.36V1486.85ZM2770.41 1486.85H2790.08C2821.2 1486.85 2835.2 1472.71 2835.2 1450.45C2835.2 1427.25 2819.66 1414.3 2790.78 1414.3H2770.41V1486.85ZM2786.39 1472.91V1428.24H2790.68C2798.79 1428.24 2805.72 1429.04 2810.85 1432.62C2816.27 1436.46 2819.26 1442.88 2819.26 1450.45C2819.26 1464.84 2810.85 1472.91 2790.78 1472.91H2786.39ZM2872.35 1450.7C2872.35 1471.82 2888.53 1488 2911.89 1488C2919.11 1488 2926.93 1486.46 2933.15 1483.17V1466.93C2927.13 1471.02 2920.1 1473.66 2912.58 1473.66C2897.64 1473.66 2888.28 1463.4 2888.28 1450.45C2888.28 1437.35 2897.94 1427.54 2911.99 1427.54C2919.41 1427.54 2926.73 1430.23 2932.01 1433.82V1417.68C2926.28 1414.9 2919.16 1413.15 2911.89 1413.15C2888.53 1413.15 2872.35 1429.64 2872.35 1450.7ZM2985.24 1473.51C2972.69 1473.51 2963.28 1463.4 2963.28 1450.6C2963.28 1437.75 2972.69 1427.59 2985.24 1427.59C2997.79 1427.59 3007.2 1437.75 3007.2 1450.6C3007.2 1463.4 2997.79 1473.51 2985.24 1473.51ZM2985.24 1488C3006.8 1488 3023.14 1471.72 3023.14 1450.6C3023.14 1429.44 3006.8 1413.15 2985.24 1413.15C2963.73 1413.15 2947.34 1429.44 2947.34 1450.6C2947.34 1471.72 2963.73 1488 2985.24 1488ZM3076.47 1470.12L3086.98 1455.18C3090.61 1450.1 3094.2 1444.77 3097.64 1439.65L3097.84 1439.74C3097.74 1444.97 3097.64 1451.8 3097.64 1457.77V1486.85H3113.57V1414.3H3098.43L3076.87 1444.97L3055.31 1414.3H3039.97V1486.85H3055.31V1457.77C3055.31 1451.8 3055.21 1444.97 3055.11 1439.74L3055.31 1439.65C3058.74 1444.77 3062.33 1450.1 3065.96 1455.18L3076.47 1470.12ZM3133.59 1486.85H3149.53V1460.91H3154.56C3176.22 1460.91 3188.47 1454.19 3188.47 1437.45C3188.47 1419.23 3172.88 1414.3 3155.15 1414.3H3133.59V1486.85ZM3149.53 1447.96V1428.24H3154.96C3167.01 1428.24 3172.48 1430.23 3172.48 1438.25C3172.48 1445.07 3168.5 1447.96 3155.35 1447.96H3149.53ZM3194.25 1486.85H3210.58L3216.51 1471.62H3245.79L3251.61 1486.85H3268.65L3239.16 1414.3H3223.73L3194.25 1486.85ZM3224.32 1451.35C3226.62 1445.27 3229.21 1438.05 3231.15 1432.52H3231.35C3233.24 1438.05 3235.88 1445.27 3237.97 1451L3240.96 1459.07H3221.44L3224.32 1451.35ZM3333.09 1486.85H3348.12V1414.3H3332.79V1441.24C3332.79 1448.26 3332.89 1455.28 3332.99 1462.2L3332.79 1462.3C3328.3 1455.98 3323.87 1449.85 3319.14 1443.58L3297.38 1414.3H3282.34V1486.85H3297.68V1459.91C3297.68 1452.89 3297.58 1445.87 3297.48 1438.95L3297.68 1438.85C3302.21 1445.17 3306.59 1451.3 3311.32 1457.57L3333.09 1486.85ZM3388.21 1486.85H3404.15V1453.99L3431.89 1414.3H3413.96L3405.24 1427.29C3402.21 1431.83 3399.32 1436.36 3396.53 1440.79H3396.33C3393.49 1436.36 3390.4 1431.53 3387.62 1427.39L3378.75 1414.3H3360.23L3388.21 1454.09V1486.85Z" fill="#253C6A"/>
</svg>
